<svg>
<polyline fill="#5768B1" stroke="#242B64" stroke-width="3" stroke-linecap="round" stroke-linejoin="round" stroke-miterlimit="10" points="
	156.053,169.252 61.636,33.385 24.523,169.252 "/>
<g>
	<defs>
		<rect id="SVGID_1_" x="1.445" y="32.859" width="19" height="16.82"/>
	</defs>
	<clipPath id="SVGID_2_">
		<use xlink:href="#SVGID_1_"  overflow="visible"/>
	</clipPath>
	<g clip-path="url(#SVGID_2_)">
		<defs>
			<rect id="SVGID_3_" x="1.445" y="32.859" width="19" height="17"/>
		</defs>
		<clipPath id="SVGID_4_">
			<use xlink:href="#SVGID_3_"  overflow="visible"/>
		</clipPath>
		<path clip-path="url(#SVGID_4_)" d="M12.924,38.201c0.215-0.934,1.039-4.24,3.551-4.24c0.179,0,1.039,0,1.793,0.497
			c-1.006,0.181-1.723,1.079-1.723,1.942c0,0.575,0.395,1.259,1.362,1.259c0.789,0,1.938-0.653,1.938-2.104
			c0-1.886-2.096-2.396-3.301-2.396c-2.088,0-3.346,1.935-3.777,2.773c-0.899-2.408-2.842-2.773-3.883-2.773
			c-3.739,0-5.789,4.664-5.789,5.568c0,0.361,0.359,0.361,0.431,0.361c0.287,0,0.396-0.072,0.466-0.397
			c1.221-3.828,3.588-4.731,4.807-4.731c0.681,0,1.937,0.323,1.937,2.407c0,1.114-0.61,3.521-1.937,8.552
			c-0.574,2.229-1.83,3.737-3.408,3.737c-0.215,0-1.039,0-1.793-0.498c0.877-0.18,1.648-0.935,1.648-1.942
			c0-0.971-0.789-1.259-1.328-1.259c-1.076,0-1.973,0.944-1.973,2.105c0,1.669,1.797,2.394,3.379,2.394
			c2.372,0,3.666-2.514,3.773-2.729c0.432,1.33,1.726,2.729,3.883,2.729c3.701,0,5.754-4.63,5.754-5.526
			c0-0.359-0.322-0.359-0.43-0.359c-0.323,0-0.396,0.144-0.467,0.396c-1.184,3.832-3.621,4.69-4.77,4.69
			c-1.398,0-1.973-1.149-1.973-2.372c0-0.791,0.215-1.581,0.609-3.162"/>
	</g>
</g>
<g>
	<g>

			<line fill="none" stroke="#000000" stroke-linecap="round" stroke-linejoin="round" x1="26.739" y1="92.798" x2="29.739" y2="92.798"/>

			<line fill="none" stroke="#000000" stroke-linecap="round" stroke-linejoin="round" stroke-dasharray="6.0723,6.0723" x1="35.812" y1="92.798" x2="154.221" y2="92.798"/>

			<line fill="none" stroke="#000000" stroke-linecap="round" stroke-linejoin="round" x1="157.257" y1="92.798" x2="160.257" y2="92.798"/>
	</g>
</g>
<circle fill="none" stroke="#683939" stroke-miterlimit="10" cx="45.421" cy="92.798" r="4.96"/>
<circle fill="none" stroke="#683939" stroke-miterlimit="10" cx="103.385" cy="92.798" r="4.96"/>
<g>
	<defs>
		<rect id="SVGID_5_" x="143.312" y="173.013" width="18" height="24.801"/>
	</defs>
	<clipPath id="SVGID_6_">
		<use xlink:href="#SVGID_5_"  overflow="visible"/>
	</clipPath>
	<g clip-path="url(#SVGID_6_)">
		<defs>
			<rect id="SVGID_7_" x="143.312" y="173.013" width="18" height="25"/>
		</defs>
		<clipPath id="SVGID_8_">
			<use xlink:href="#SVGID_7_"  overflow="visible"/>
		</clipPath>
		<path clip-path="url(#SVGID_8_)" d="M151.55,189.013c-2.505,0-3.076-2.875-3.076-3.199c0-0.143,0.178-0.861,0.285-1.33
			c1.002-4.023,1.359-5.316,2.146-6.756c1.537-2.623,3.326-3.414,4.436-3.414c1.324,0,2.471,1.043,2.471,3.523
			c0,1.975-1.039,6-2.006,7.762C154.626,187.862,152.909,189.013,151.55,189.013 M143.597,195.571
			c-0.108,0.43-0.108,0.502-0.108,0.574c0,0.537,0.396,0.967,1.004,0.967c0.753,0,1.183-0.686,1.255-0.799
			c0.18-0.32,1.326-5.076,2.294-8.908c0.718,1.438,1.864,2.406,3.55,2.406c4.195,0,8.822-5.07,8.822-10.43
			c0-3.814-2.369-5.867-4.986-5.867c-3.478,0-7.242,3.586-8.318,7.961L143.597,195.571z"/>
	</g>
</g>
<g>
	<defs>
		<rect id="SVGID_9_" x="164.363" y="78.979" width="18.468" height="20.446"/>
	</defs>
	<clipPath id="SVGID_10_">
		<use xlink:href="#SVGID_9_"  overflow="visible"/>
	</clipPath>
	<path clip-path="url(#SVGID_10_)" d="M171.802,91.474c0.143-0.617,0.687-2.798,2.343-2.798c0.118,0,0.687,0,1.183,0.328
		c-0.663,0.119-1.137,0.712-1.137,1.281c0,0.379,0.261,0.832,0.898,0.832c0.521,0,1.279-0.432,1.279-1.389
		c0-1.244-1.382-1.58-2.178-1.58c-1.376,0-2.205,1.276-2.49,1.829c-0.594-1.588-1.874-1.829-2.562-1.829
		c-2.466,0-3.816,3.076-3.816,3.672c0,0.238,0.237,0.238,0.283,0.238c0.189,0,0.26-0.048,0.308-0.262
		c0.805-2.524,2.366-3.121,3.169-3.121c0.449,0,1.278,0.214,1.278,1.588c0,0.734-0.402,2.322-1.278,5.64
		c-0.378,1.469-1.206,2.465-2.247,2.465c-0.141,0-0.685,0-1.182-0.328c0.578-0.119,1.087-0.617,1.087-1.281
		c0-0.64-0.521-0.83-0.876-0.83c-0.709,0-1.301,0.622-1.301,1.388c0,1.101,1.185,1.58,2.229,1.58c1.563,0,2.418-1.659,2.489-1.802
		c0.284,0.878,1.137,1.802,2.56,1.802c2.441,0,3.795-3.054,3.795-3.646c0-0.236-0.213-0.236-0.283-0.236
		c-0.214,0-0.261,0.095-0.308,0.261c-0.78,2.527-2.39,3.094-3.146,3.094c-0.923,0-1.301-0.759-1.301-1.563
		c0-0.522,0.143-1.043,0.402-2.086"/>
	<path clip-path="url(#SVGID_10_)" d="M182.221,81.081c0.133-0.282,0.149-0.415,0.149-0.53c0-0.513-0.464-0.911-0.978-0.911
		c-0.628,0-0.827,0.517-0.911,0.782l-2.186,7.197c-0.016,0.033-0.082,0.249-0.082,0.266c0,0.181,0.514,0.33,0.646,0.33
		c0.116,0,0.134-0.033,0.249-0.281"/>
</g>
<g>
	<g>

			<line fill="none" stroke="#000000" stroke-linecap="round" stroke-linejoin="round" x1="45.421" y1="92.747" x2="45.421" y2="95.747"/>

			<line fill="none" stroke="#000000" stroke-linecap="round" stroke-linejoin="round" stroke-dasharray="6.4862,6.4862" x1="45.421" y1="102.233" x2="45.421" y2="163.853"/>

			<line fill="none" stroke="#000000" stroke-linecap="round" stroke-linejoin="round" x1="45.421" y1="167.096" x2="45.421" y2="170.096"/>
	</g>
</g>
<g>
	<g>

			<line fill="none" stroke="#000000" stroke-linecap="round" stroke-linejoin="round" x1="103.385" y1="92.747" x2="103.385" y2="95.747"/>

			<line fill="none" stroke="#000000" stroke-linecap="round" stroke-linejoin="round" stroke-dasharray="6.4862,6.4862" x1="103.385" y1="102.233" x2="103.385" y2="163.853"/>

			<line fill="none" stroke="#000000" stroke-linecap="round" stroke-linejoin="round" x1="103.385" y1="167.096" x2="103.385" y2="170.096"/>
	</g>
</g>
<g>
	<defs>
		<rect id="SVGID_11_" x="92.04" y="170.096" width="25.162" height="25.162"/>
	</defs>
	<clipPath id="SVGID_12_">
		<use xlink:href="#SVGID_11_"  overflow="visible"/>
	</clipPath>
	<path clip-path="url(#SVGID_12_)" d="M97.677,189.708c-1.615,0-1.984-1.854-1.984-2.062c0-0.093,0.115-0.557,0.184-0.858
		c0.646-2.597,0.877-3.431,1.385-4.358c0.992-1.692,2.146-2.202,2.861-2.202c0.854,0,1.594,0.673,1.594,2.271
		c0,1.275-0.67,3.872-1.293,5.008C99.661,188.967,98.554,189.708,97.677,189.708 M92.545,193.94
		c-0.069,0.277-0.069,0.324-0.069,0.37c0,0.348,0.255,0.625,0.647,0.625c0.485,0,0.763-0.442,0.81-0.517
		c0.116-0.206,0.855-3.274,1.48-5.747c0.463,0.927,1.203,1.553,2.29,1.553c2.706,0,5.692-3.271,5.692-6.729
		c0-2.46-1.529-3.785-3.218-3.785c-2.243,0-4.672,2.314-5.366,5.137L92.545,193.94z"/>
	<path clip-path="url(#SVGID_12_)" d="M111.266,176.742h4.97c0.211,0,0.602,0,0.602-0.379c0-0.396-0.373-0.396-0.602-0.396h-4.97
		v-4.951c0-0.209,0-0.598-0.38-0.598c-0.395,0-0.395,0.373-0.395,0.598v4.951h-4.977c-0.211,0-0.599,0-0.599,0.379
		c0,0.396,0.373,0.396,0.599,0.396h4.977v5.009c0,0.213,0,0.604,0.38,0.604c0.396,0,0.396-0.375,0.396-0.604"/>
</g>
<g>
	<defs>
		<rect id="SVGID_13_" x="36.988" y="173.5" width="24.642" height="20.103"/>
	</defs>
	<clipPath id="SVGID_14_">
		<use xlink:href="#SVGID_13_"  overflow="visible"/>
	</clipPath>
	<path clip-path="url(#SVGID_14_)" d="M42.524,187.895c-1.624,0-1.994-1.864-1.994-2.074c0-0.093,0.116-0.558,0.185-0.861
		c0.65-2.61,0.881-3.448,1.392-4.382c0.997-1.7,2.157-2.214,2.876-2.214c0.858,0,1.602,0.678,1.602,2.285
		c0,1.281-0.673,3.891-1.3,5.033C44.52,187.149,43.406,187.895,42.524,187.895 M37.367,192.148c-0.07,0.278-0.07,0.325-0.07,0.372
		c0,0.349,0.256,0.628,0.651,0.628c0.488,0,0.767-0.444,0.814-0.519c0.116-0.207,0.859-3.291,1.487-5.777
		c0.465,0.932,1.208,1.561,2.301,1.561c2.721,0,5.722-3.287,5.722-6.763c0-2.473-1.538-3.805-3.234-3.805
		c-2.255,0-4.695,2.325-5.394,5.163L37.367,192.148z"/>
	<path clip-path="url(#SVGID_14_)" d="M60.782,174.862c0.261,0,0.653,0,0.653-0.382c0-0.396-0.375-0.396-0.653-0.396h-9.721
		c-0.261,0-0.652,0-0.652,0.381c0,0.396,0.375,0.396,0.652,0.396"/>
</g>
<g>
	<g>
		<polyline fill="none" stroke="#000000" stroke-width="5" stroke-linecap="round" stroke-linejoin="round" points="
			169.752,169.252 24.523,169.252 24.523,17.651 		"/>
		<g>
			<polygon points="187.403,169.252 162.53,159.088 168.433,169.252 162.53,179.413 			"/>
		</g>
		<g>
			<polygon points="24.523,0 34.687,24.873 24.523,18.971 14.362,24.873 			"/>
		</g>
	</g>
</g>
</svg>
