<svg>
<path fill="#5768B1" stroke="#201B59" stroke-width="3" stroke-linecap="round" stroke-linejoin="round" stroke-miterlimit="10" d="
	M126.172,169.252c-21.576-13.84-48.754-49.549-56.51-76.505H24.523v76.505H126.172z"/>
<circle fill="none" stroke="#683939" stroke-miterlimit="10" cx="45.421" cy="92.798" r="4.96"/>
<circle fill="none" stroke="#683939" stroke-miterlimit="10" cx="103.385" cy="149.878" r="4.96"/>
<g>
	<g clip-path="url(#SVGID_2_)">
		<path clip-path="url(#SVGID_4_)" d="M151.55,189.013c-2.505,0-3.076-2.875-3.076-3.199c0-0.143,0.178-0.861,0.285-1.33
			c1.002-4.023,1.359-5.316,2.146-6.756c1.537-2.623,3.326-3.414,4.436-3.414c1.324,0,2.471,1.043,2.471,3.523
			c0,1.975-1.039,6-2.006,7.762C154.626,187.862,152.909,189.013,151.55,189.013 M143.597,195.571
			c-0.108,0.43-0.108,0.502-0.108,0.574c0,0.537,0.396,0.967,1.004,0.967c0.753,0,1.183-0.686,1.255-0.799
			c0.18-0.32,1.326-5.076,2.294-8.908c0.718,1.438,1.864,2.406,3.55,2.406c4.195,0,8.822-5.07,8.822-10.43
			c0-3.814-2.369-5.867-4.986-5.867c-3.478,0-7.242,3.586-8.318,7.961L143.597,195.571z"/>
	</g>
</g>
<g>
	<g>

			<line fill="none" stroke="#000000" stroke-linecap="round" stroke-linejoin="round" x1="45.421" y1="92.747" x2="45.421" y2="95.747"/>

			<line fill="none" stroke="#000000" stroke-linecap="round" stroke-linejoin="round" stroke-dasharray="6.4862,6.4862" x1="45.421" y1="102.233" x2="45.421" y2="163.853"/>

			<line fill="none" stroke="#000000" stroke-linecap="round" stroke-linejoin="round" x1="45.421" y1="167.096" x2="45.421" y2="170.096"/>
	</g>
</g>
<g>
	<g>

			<line fill="none" stroke="#000000" stroke-linecap="round" stroke-linejoin="round" x1="103.385" y1="149.878" x2="103.385" y2="152.878"/>

			<line fill="none" stroke="#000000" stroke-linecap="round" stroke-linejoin="round" stroke-dasharray="4.7393,4.7393" x1="103.385" y1="157.617" x2="103.385" y2="164.727"/>

			<line fill="none" stroke="#000000" stroke-linecap="round" stroke-linejoin="round" x1="103.385" y1="167.096" x2="103.385" y2="170.096"/>
	</g>
</g>
<g>
	<path clip-path="url(#SVGID_6_)" d="M97.677,189.708c-1.615,0-1.984-1.854-1.984-2.062c0-0.093,0.115-0.557,0.184-0.858
		c0.646-2.597,0.877-3.431,1.385-4.358c0.992-1.692,2.146-2.202,2.861-2.202c0.854,0,1.594,0.673,1.594,2.271
		c0,1.275-0.67,3.872-1.293,5.008C99.661,188.967,98.554,189.708,97.677,189.708 M92.545,193.94
		c-0.069,0.277-0.069,0.324-0.069,0.37c0,0.348,0.255,0.625,0.647,0.625c0.485,0,0.763-0.442,0.81-0.517
		c0.116-0.206,0.855-3.274,1.48-5.747c0.463,0.927,1.203,1.553,2.29,1.553c2.706,0,5.692-3.271,5.692-6.729
		c0-2.46-1.529-3.785-3.218-3.785c-2.243,0-4.672,2.314-5.366,5.137L92.545,193.94z"/>
	<path clip-path="url(#SVGID_6_)" d="M111.266,176.742h4.97c0.211,0,0.602,0,0.602-0.379c0-0.396-0.373-0.396-0.602-0.396h-4.97
		v-4.951c0-0.209,0-0.598-0.38-0.598c-0.395,0-0.395,0.373-0.395,0.598v4.951h-4.977c-0.211,0-0.599,0-0.599,0.379
		c0,0.396,0.373,0.396,0.599,0.396h4.977v5.009c0,0.213,0,0.604,0.38,0.604c0.396,0,0.396-0.375,0.396-0.604"/>
</g>
<g>
	<path clip-path="url(#SVGID_8_)" d="M42.524,187.895c-1.624,0-1.994-1.864-1.994-2.074c0-0.093,0.116-0.558,0.185-0.861
		c0.65-2.61,0.881-3.448,1.392-4.382c0.997-1.7,2.157-2.214,2.876-2.214c0.858,0,1.602,0.678,1.602,2.285
		c0,1.281-0.673,3.891-1.3,5.033C44.52,187.149,43.406,187.895,42.524,187.895 M37.367,192.148c-0.07,0.278-0.07,0.325-0.07,0.372
		c0,0.349,0.256,0.628,0.651,0.628c0.488,0,0.767-0.444,0.814-0.519c0.116-0.207,0.859-3.291,1.487-5.777
		c0.465,0.932,1.208,1.561,2.301,1.561c2.721,0,5.722-3.287,5.722-6.763c0-2.473-1.538-3.805-3.234-3.805
		c-2.255,0-4.695,2.325-5.394,5.163L37.367,192.148z"/>
	<path clip-path="url(#SVGID_8_)" d="M60.782,174.862c0.261,0,0.653,0,0.653-0.382c0-0.396-0.375-0.396-0.653-0.396h-9.721
		c-0.261,0-0.652,0-0.652,0.381c0,0.396,0.375,0.396,0.652,0.396"/>
</g>
<g>
	<g>
		<polyline fill="none" stroke="#000000" stroke-width="5" stroke-linecap="round" stroke-linejoin="round" points="
			169.752,169.252 24.523,169.252 24.523,17.651 		"/>
		<g>
			<polygon points="187.403,169.252 162.53,159.088 168.433,169.252 162.53,179.413 			"/>
		</g>
		<g>
			<polygon points="24.523,0 34.687,24.873 24.523,18.971 14.362,24.873 			"/>
		</g>
	</g>
</g>
<g>
	<path clip-path="url(#SVGID_10_)" d="M19.925,35.791c0-1.941-0.951-2.521-1.609-2.521c-0.914,0-1.792,0.938-1.792,1.729
		c0,0.468,0.184,0.684,0.59,1.079c0.774,0.72,1.254,1.654,1.254,2.948c0,1.51-2.189,9.743-6.387,9.743
		c-1.83,0-2.655-1.258-2.655-3.128c0-2.014,0.964-4.639,2.07-7.622c0.25-0.611,0.429-1.114,0.429-1.798
		c0-1.618-1.146-2.951-2.937-2.951c-3.364,0-4.723,5.242-4.723,5.568c0,0.36,0.354,0.36,0.425,0.36c0.354,0,0.39-0.071,0.566-0.649
		c1.028-3.647,2.552-4.479,3.58-4.479c0.284,0,0.886,0,0.886,1.153c0,0.898-0.352,1.87-0.597,2.517
		c-1.546,4.17-2.002,5.824-2.002,7.37c0,3.883,3.152,4.458,4.8,4.458C17.873,49.567,19.926,37.662,19.925,35.791"/>
</g>
</svg>
