<svg id="density-svg">
<g>
	<g>
		<rect x="228.741" y="1" fill="#FCE5CD" width="269.42" height="372.74"/>
		<rect x="12.161" y="1" opacity="0.2923" fill="#DAE3F3" width="216.576" height="372.74"/>

			<line fill="none" stroke="#000000" stroke-width="3" stroke-linejoin="round" stroke-miterlimit="14.3356" stroke-dasharray="24,9" x1="16.944" y1="295.958" x2="228.741" y2="295.958"/>

			<polyline fill="none" stroke="#000000" stroke-width="3" stroke-linejoin="round" stroke-miterlimit="14.3356" stroke-dasharray="24,9" points="
			227.962,295.958 339.86,232.423 369.308,143.859 371.593,39.019 		"/>
		<polygon fill-rule="evenodd" clip-rule="evenodd" points="376.546,39.126 371.888,25.408 366.638,38.91 		"/>
		<polygon fill="none" stroke="#000000" stroke-width="3" stroke-miterlimit="11.4737" points="376.546,39.126 371.888,25.408
			366.638,38.91 		"/>

			<path fill="none" stroke="#000000" stroke-width="3" stroke-linejoin="round" stroke-miterlimit="14.3356" stroke-dasharray="24,9,3,9" d="
			M316.638,168.208L316.638,168.208c-4.25,55.723-38.535,104.697-89.439,127.758"/>

			<line fill="none" stroke="#000000" stroke-width="3" stroke-linejoin="round" stroke-miterlimit="14.3356" stroke-dasharray="24,9,3,9" x1="316.638" y1="168.208" x2="316.638" y2="40.555"/>
		<polygon fill-rule="evenodd" clip-rule="evenodd" points="321.593,40.555 316.638,26.941 311.683,40.555 		"/>
		<polygon fill="none" stroke="#000000" stroke-width="3" stroke-miterlimit="11.4737" points="321.593,40.555 316.638,26.941
			311.683,40.555 		"/>

			<path fill="none" stroke="#000000" stroke-width="3" stroke-linejoin="round" stroke-miterlimit="14.3356" stroke-dasharray="3,9" d="
			M227.962,296.73c16.508-4.107,77.549-12.965,99.041-24.645c21.492-11.682,13.072-33.887,29.912-45.438
			c16.838-11.553,55.723-5.52,71.123-23.873c15.398-18.355,17.502-56.991,21.27-86.256c1.883-14.633,2.16-33.244,1.994-50.059
			c-0.041-4.203-0.111-8.295-0.189-12.184c-0.039-1.944-0.082-3.838-0.123-5.67l-0.08-3.425"/>
		<polygon fill-rule="evenodd" clip-rule="evenodd" points="455.864,45.107 450.704,31.57 445.954,45.257 		"/>
		<polygon fill="none" stroke="#000000" stroke-width="3" stroke-miterlimit="11.4737" points="455.864,45.107 450.704,31.57
			445.954,45.257 		"/>

			<line fill="none" stroke="#000000" stroke-width="1.5" stroke-linejoin="round" stroke-miterlimit="14.3356" stroke-dasharray="6,4.5,1.5,4.5" x1="228.741" y1="375.283" x2="228.741" y2="13.324"/>
		<text transform="matrix(1 0 0 1 99.3813 202.749)" fill="#1C4587" font-family="'Arial-Bold'" font-size="50">Free </text>
		<text transform="matrix(1 0 0 1 96.9058 244.2485)" fill="#1C4587" font-family="'Arial-Bold'" font-size="50">Flow</text>
		<text transform="matrix(1 0 0 1 229.7959 333.9126)" fill="#783F04" font-family="'Arial-Bold'" font-size="50">Congestion</text>
		<g>
			<g>
				<polyline fill="none" stroke="#231F20" stroke-width="5" stroke-linecap="round" stroke-linejoin="round" points="
					481.391,374.25 10.161,374.25 10.161,17.652 				"/>
				<g>
					<polygon fill="#231F20" points="499.042,374.25 474.169,364.085 480.071,374.25 474.169,384.411 					"/>
				</g>
				<g>
					<polygon fill="#231F20" points="10.161,0 20.325,24.873 10.161,18.971 0,24.873 					"/>
				</g>
			</g>
		</g>
		<g>
			<path d="M38.251,70.229c0.135-0.745,3.021-15.739,6.848-23.643c1.814-3.648,3.223-6.352,5.371-6.352
				c2.283,0,2.283,2.432,2.283,3.512c0,11.281-11.275,23.104-14.498,26.48 M28.608,79.631c-0.139,0.201-0.346,0.404-0.346,0.676
				c0,0.337,0.406,0.878,0.812,0.878c0.336,0,0.539-0.202,2.436-2.093c0.539-0.473,1.893-1.755,2.434-2.295
				c0.676,5.33,2.637,10.323,7.576,10.323c2.707,0,5.076-1.539,6.496-2.545c0.947-0.671,4.125-3.282,4.125-3.952
				c0-0.201-0.203-0.805-0.812-0.805c-0.201,0-0.27,0.067-0.879,0.6c-4.33,4.195-6.832,5.194-8.795,5.194
				c-3.045,0-4.127-3.507-4.127-8.77c0-0.404,0.137-3.507,0.34-3.845c0.135-0.201,0.135-0.337,1.486-1.686
				c5.48-5.465,15.092-16.862,15.092-27.318c0-1.146,0-5.269-3.973-5.269c-5.586,0-10.562,11.141-11.238,12.692
				c-3.229,7.355-5.316,15.254-5.316,23.282L28.608,79.631z"/>
		</g>
		<g>
			<defs>
				<rect id="SVGID_3_" x="140.982" y="319.325" width="34" height="46.844"/>
			</defs>
			<clipPath id="SVGID_4_">
				<use xlink:href="#SVGID_3_"  overflow="visible"/>
			</clipPath>
			<g clip-path="url(#SVGID_4_)">
				<path d="M156.542,349.545c-4.731,0-5.811-5.431-5.811-6.041c0-0.271,0.337-1.627,0.54-2.513
					c1.893-7.602,2.566-10.044,4.053-12.761c2.905-4.955,6.285-6.449,8.38-6.449c2.498,0,4.665,1.97,4.665,6.653
					c0,3.731-1.962,11.335-3.787,14.661C162.354,347.373,159.109,349.545,156.542,349.545 M141.52,361.933
					c-0.205,0.813-0.205,0.95-0.205,1.085c0,1.017,0.747,1.828,1.896,1.828c1.422,0,2.235-1.295,2.372-1.511
					c0.338-0.604,2.503-9.587,4.331-16.825c1.355,2.714,3.521,4.546,6.705,4.546c7.923,0,16.666-9.577,16.666-19.703
					c0-7.203-4.479-11.082-9.42-11.082c-6.569,0-13.678,6.775-15.711,15.039L141.52,361.933z"/>
			</g>
		</g>
	</g>
</g>
</svg>
