<svg id="flux-svg">
<g>
	<path fill="#DAE3F3" fill-opacity="0.2923" d="M7.721,572.921h446.397v94.543H7.721V572.921z"/>
	<g>
		<path fill="#FCE5CD" d="M11.059,221.44h440.317v347.455H11.059V221.44z"/>

			<path fill="none" stroke="#000000" stroke-width="2" stroke-linejoin="round" stroke-miterlimit="10" stroke-dasharray="8,6,2,6" d="
			M454.243,666.662V220.5"/>

			<path fill="none" stroke="#000000" stroke-width="4" stroke-linejoin="round" stroke-miterlimit="10" stroke-dasharray="32,12" d="
			M9.671,572H448.33"/>
		<path fill="none" stroke="#000000" stroke-width="4" stroke-linejoin="round" stroke-miterlimit="10" stroke-dasharray="4,12" d="
			M449.442,571.817c-47.23-5.881-218.876-17.642-283.381-35.284c-64.504-17.642-78.654-30.506-103.647-70.569
			c-24.994-40.062-38.226-134.523-46.312-169.808c-2.021-8.821-3.147-15.414-3.704-20.451l-0.003-0.026"/>
		<path stroke="#000000" stroke-width="4" stroke-miterlimit="10" d="M18.294,276.093l-4.762-16.618l-7.034,15.791L18.294,276.093z"
			/>

			<path fill="none" stroke="#000000" stroke-width="4" stroke-linejoin="round" stroke-miterlimit="10" stroke-dasharray="32,12,4,12" d="
			M452.75,572.922c-7.167-29.038,0.92-132.687-43.002-174.22s-163.008-53.845-220.53-74.979
			c-57.522-21.134-99.791-38.226-124.6-51.826c-6.203-3.399-10.567-6.65-13.688-9.691c-0.195-0.19-0.385-0.379-0.57-0.568
			c-0.092-0.094-0.185-0.188-0.274-0.282l-0.054-0.055"/>
		<path stroke="#000000" stroke-width="4" stroke-miterlimit="10" d="M55.311,258.638l-12.593-11.841l2.036,17.166L55.311,258.638z"
			/>

			<path fill="none" stroke="#000000" stroke-width="4" stroke-linejoin="round" stroke-miterlimit="10" stroke-dasharray="32,12" d="
			M450.544,571.817L226.706,468.155"/>

			<path fill="none" stroke="#000000" stroke-width="4" stroke-linejoin="round" stroke-miterlimit="10" stroke-dasharray="32,12" d="
			M226.708,468.169L53.6,290.637"/>

			<path fill="none" stroke="#000000" stroke-width="4" stroke-linejoin="round" stroke-miterlimit="10" stroke-dasharray="32,12" d="
			M53.594,290.642l-9.493-23.14"/>
		<path stroke="#000000" stroke-width="4" stroke-miterlimit="10" d="M49.571,265.258l-11.635-12.784l0.695,17.272L49.571,265.258z"
			/>
		<rect x="135.615" y="245.62" fill="none" width="313.827" height="48.251"/>
		<text transform="matrix(1 0 0 1 135.6143 285.5869)" fill="#6B3612" font-family="'MyriadPro-Regular'" font-size="56.2936">Congestion</text>
		<g>
			<rect x="168.587" y="584.187" fill="none" width="243.58" height="48.251"/>
			<text transform="matrix(1 0 0 1 168.5859 624.1533)" fill="#3E31A7" font-family="'MyriadPro-Regular'" font-size="56.2936">Free Flow</text>
		</g>
	</g>
</g>
<g>
	<g>
		<g>
			<polyline fill="none" stroke="#231F20" stroke-width="5" stroke-linecap="round" stroke-linejoin="round" points="
				477.729,669.811 6.5,669.811 6.5,237.661 			"/>
			<g>
				<polygon fill="#231F20" points="495.381,669.811 470.508,659.646 476.41,669.811 470.508,679.972 				"/>
			</g>
			<g>
				<polygon fill="#231F20" points="6.5,220.009 16.664,244.882 6.5,238.98 -3.661,244.882 				"/>
			</g>
		</g>
	</g>
	<g>
		<path d="M28.837,501.363c0.135-0.746,3.021-15.74,6.848-23.643c1.814-3.648,3.223-6.352,5.371-6.352
			c2.283,0,2.283,2.432,2.283,3.512c0,11.281-11.275,23.104-14.498,26.48 M19.194,510.766c-0.139,0.201-0.346,0.404-0.346,0.676
			c0,0.336,0.406,0.877,0.812,0.877c0.336,0,0.539-0.201,2.436-2.092c0.539-0.473,1.893-1.756,2.434-2.295
			c0.676,5.33,2.637,10.322,7.576,10.322c2.707,0,5.076-1.539,6.496-2.545c0.947-0.67,4.125-3.281,4.125-3.951
			c0-0.201-0.203-0.805-0.812-0.805c-0.201,0-0.27,0.066-0.879,0.6c-4.33,4.195-6.832,5.193-8.795,5.193
			c-3.045,0-4.127-3.506-4.127-8.77c0-0.404,0.137-3.506,0.34-3.844c0.135-0.201,0.135-0.338,1.486-1.686
			c5.48-5.465,15.092-16.863,15.092-27.318c0-1.146,0-5.27-3.973-5.27c-5.586,0-10.562,11.141-11.238,12.693
			c-3.229,7.355-5.316,15.254-5.316,23.281L19.194,510.766z"/>
	</g>
</g>
<g>
	<path d="M100.225,634.046c0.487-2.119,2.359-9.62,8.054-9.62c0.408,0,2.359,0,4.067,1.13
		c-2.279,0.407-3.907,2.448-3.907,4.406c0,1.305,0.895,2.854,3.092,2.854c1.79,0,4.395-1.481,4.395-4.771
		c0-4.28-4.753-5.434-7.487-5.434c-4.736,0-7.589,4.388-8.568,6.288c-2.038-5.46-6.444-6.288-8.807-6.288
		c-8.479,0-13.129,10.579-13.129,12.63c0,0.817,0.813,0.817,0.977,0.817c0.651,0,0.895-0.164,1.055-0.899
		c2.769-8.683,8.138-10.734,10.902-10.734c1.546,0,4.395,0.735,4.395,5.463c0,2.527-1.386,7.987-4.395,19.397
		c-1.302,5.055-4.148,8.478-7.729,8.478c-0.487,0-2.359,0-4.067-1.13c1.987-0.408,3.737-2.122,3.737-4.405
		c0-2.202-1.789-2.855-3.012-2.855c-2.439,0-4.474,2.142-4.474,4.775c0,3.786,4.076,5.43,7.664,5.43
		c5.383,0,8.316-5.702,8.562-6.191c0.977,3.017,3.914,6.191,8.805,6.191c8.397,0,13.051-10.503,13.051-12.536
		c0-0.814-0.731-0.814-0.974-0.814c-0.731,0-0.896,0.325-1.057,0.895c-2.687,8.691-8.215,10.642-10.82,10.642
		c-3.172,0-4.475-2.609-4.475-5.381c0-1.794,0.487-3.586,1.382-7.173"/>
</g>
</svg>
