<svg>
<g>
	<g>
		<polyline fill="none" stroke="#000000" stroke-width="5" stroke-linecap="round" stroke-linejoin="round" points="
			169.753,169.252 24.523,169.252 24.523,17.651 		"/>
		<g>
			<polygon points="187.403,169.252 162.53,159.088 168.433,169.252 162.53,179.412 			"/>
		</g>
		<g>
			<polygon points="24.523,0 34.687,24.873 24.523,18.971 14.362,24.873 			"/>
		</g>
	</g>
</g>
<g>
	<g>
		<polyline fill="none" stroke="#242B64" stroke-width="3" stroke-linecap="round" stroke-linejoin="round" points="169.224,9.895
			126.964,120.64 26.739,150.97 		"/>
		<g>
			<polygon fill="#242B64" points="173,0 161.981,11.769 168.941,10.635 173.375,16.117 			"/>
		</g>
	</g>
</g>
<g>
	<g>
		<polyline fill="none" stroke="#D2B72A" stroke-width="3" stroke-linecap="round" stroke-linejoin="round" points="86.53,10.404
			69.069,102.071 26.739,127.732 		"/>
		<g>
			<polygon fill="#D2B72A" points="88.512,0 79.729,13.519 86.382,11.182 91.708,15.801 			"/>
		</g>
	</g>
</g>
<g>
	<defs>
		<rect id="SVGID_1_" y="32.859" width="15" height="27"/>
	</defs>
	<clipPath id="SVGID_2_">
		<use xlink:href="#SVGID_1_"  overflow="visible"/>
	</clipPath>
	<path clip-path="url(#SVGID_2_)" fill="#010101" d="M3.256,52.937c0-4.269,1.112-8.465,2.833-12.375
		c0.359-0.825,3.013-6.744,5.99-6.744c2.117,0,2.117,2.188,2.117,2.798c0,5.561-5.094,11.622-7.999,14.528
		c-0.718,0.717-0.718,0.789-0.789,0.896c-0.108,0.18-0.18,1.829-0.18,2.045c0,2.797,0.574,4.663,2.188,4.663
		c1.04,0,2.367-0.538,4.663-2.798c0.323-0.287,0.359-0.323,0.466-0.323c0.323,0,0.431,0.323,0.431,0.431
		c0,0.358-1.686,1.758-2.188,2.116c-0.753,0.538-2.009,1.363-3.444,1.363c-2.618,0-3.659-2.655-4.018-5.488
		c-0.287,0.287-1.004,0.968-1.291,1.22c-1.004,1.004-1.112,1.111-1.292,1.111c-0.215,0-0.43-0.287-0.43-0.466
		c0-0.144,0.107-0.251,0.179-0.358L3.256,52.937z M13.335,36.472c0-0.573,0-1.865-1.22-1.865c-1.148,0-1.901,1.436-2.87,3.372
		c-2.045,4.197-3.587,12.16-3.659,12.555C7.309,48.74,13.335,42.462,13.335,36.472z"/>
</g>
<g>
	<defs>
		<rect id="SVGID_3_" x="133.391" y="173.523" width="19" height="16.82"/>
	</defs>
	<clipPath id="SVGID_4_">
		<use xlink:href="#SVGID_3_"  overflow="visible"/>
	</clipPath>
	<g clip-path="url(#SVGID_4_)">
		<defs>
			<rect id="SVGID_5_" x="133.391" y="173.523" width="19" height="17"/>
		</defs>
		<clipPath id="SVGID_6_">
			<use xlink:href="#SVGID_5_"  overflow="visible"/>
		</clipPath>
		<path clip-path="url(#SVGID_6_)" d="M144.87,178.865c0.215-0.934,1.039-4.24,3.551-4.24c0.179,0,1.039,0,1.793,0.497
			c-1.006,0.181-1.723,1.079-1.723,1.942c0,0.575,0.395,1.259,1.362,1.259c0.789,0,1.938-0.653,1.938-2.104
			c0-1.886-2.096-2.396-3.301-2.396c-2.088,0-3.346,1.935-3.777,2.773c-0.899-2.408-2.842-2.773-3.883-2.773
			c-3.739,0-5.789,4.664-5.789,5.568c0,0.361,0.359,0.361,0.431,0.361c0.287,0,0.396-0.072,0.466-0.397
			c1.221-3.828,3.588-4.731,4.807-4.731c0.681,0,1.937,0.323,1.937,2.407c0,1.114-0.61,3.521-1.937,8.552
			c-0.574,2.229-1.83,3.737-3.408,3.737c-0.215,0-1.039,0-1.793-0.498c0.877-0.18,1.648-0.935,1.648-1.942
			c0-0.971-0.789-1.259-1.328-1.259c-1.076,0-1.973,0.944-1.973,2.105c0,1.669,1.797,2.394,3.379,2.394
			c2.372,0,3.666-2.514,3.773-2.729c0.432,1.33,1.726,2.729,3.883,2.729c3.701,0,5.754-4.63,5.754-5.526
			c0-0.359-0.322-0.359-0.43-0.359c-0.323,0-0.396,0.144-0.467,0.396c-1.184,3.832-3.621,4.69-4.77,4.69
			c-1.398,0-1.973-1.149-1.973-2.372c0-0.791,0.215-1.581,0.609-3.162"/>
	</g>
</g>
<g>
	<g>

			<line fill="none" stroke="#000000" stroke-linecap="round" stroke-linejoin="round" x1="24.523" y1="139.89" x2="27.523" y2="139.89"/>

			<line fill="none" stroke="#000000" stroke-linecap="round" stroke-linejoin="round" stroke-dasharray="6.0723,6.0723" x1="33.596" y1="139.89" x2="152.005" y2="139.89"/>

			<line fill="none" stroke="#000000" stroke-linecap="round" stroke-linejoin="round" x1="155.041" y1="139.89" x2="158.041" y2="139.89"/>
	</g>
</g>
<g>
	<g>
		<defs>
			<rect id="SVGID_7_" x="160.056" y="125.917" width="32.072" height="23.221"/>
		</defs>
		<clipPath id="SVGID_8_">
			<use xlink:href="#SVGID_7_"  overflow="visible"/>
		</clipPath>
		<g clip-path="url(#SVGID_8_)">
			<defs>
				<rect id="SVGID_9_" x="160.056" y="125.917" width="32.072" height="23.325"/>
			</defs>
			<clipPath id="SVGID_10_">
				<use xlink:href="#SVGID_9_"  overflow="visible"/>
			</clipPath>
			<path clip-path="url(#SVGID_10_)" d="M163.671,138.646c0.041-0.231,0.936-4.875,2.121-7.322c0.561-1.13,0.997-1.968,1.662-1.968
				c0.708,0,0.708,0.754,0.708,1.089c0,3.493-3.493,7.154-4.49,8.199 M160.685,141.558c-0.043,0.062-0.107,0.125-0.107,0.209
				c0,0.104,0.127,0.272,0.252,0.272c0.104,0,0.167-0.062,0.754-0.648c0.167-0.146,0.586-0.543,0.754-0.711
				c0.209,1.65,0.816,3.197,2.347,3.197c0.838,0,1.571-0.477,2.011-0.788c0.293-0.208,1.278-1.017,1.278-1.225
				c0-0.062-0.063-0.249-0.251-0.249c-0.063,0-0.084,0.021-0.273,0.186c-1.341,1.3-2.115,1.609-2.724,1.609
				c-0.942,0-1.277-1.087-1.277-2.716c0-0.126,0.042-1.086,0.104-1.19c0.043-0.062,0.043-0.104,0.461-0.521
				c1.697-1.693,4.674-5.223,4.674-8.461c0-0.355,0-1.632-1.23-1.632c-1.73,0-3.271,3.45-3.48,3.931
				c-1,2.278-1.646,4.725-1.646,7.211L160.685,141.558z"/>
			<path clip-path="url(#SVGID_10_)" d="M172.916,126.254c-0.161-0.205-0.176-0.221-0.469-0.221h-2.533v0.525h0.44
				c0.631,0,0.998,0.074,1.072,0.088v7.782c0,0.396,0,1.052-1.514,1.052v0.525c0.601-0.045,1.187-0.059,1.787-0.059
				c0.6,0,1.186,0.014,1.785,0.059v-0.525c-1.477,0-1.477-0.659-1.477-1.054v-7.396l6.499,8.755c0.146,0.206,0.161,0.22,0.337,0.22
				c0.278,0,0.278-0.131,0.278-0.409v-7.986c0-0.394,0-1.051,1.478-1.051v-0.525c-0.6,0.044-1.186,0.058-1.786,0.058
				s-1.187-0.014-1.786-0.058v0.525c1.512,0,1.512,0.657,1.512,1.051v6.185"/>
			<path clip-path="url(#SVGID_10_)" d="M192.057,132.154h-0.498c-0.38,2.213-0.716,3.325-3.419,3.325h-2.308
				c-0.687,0-0.7-0.116-0.7-0.569v-3.803h1.465c1.465,0,1.684,0.438,1.684,1.707h0.525v-3.954h-0.525
				c0,1.28-0.219,1.722-1.684,1.722h-1.465v-3.396c0-0.452,0.014-0.568,0.7-0.568h2.19c2.396,0,2.82,0.783,3.083,2.814h0.497
				l-0.439-3.367h-8.945v0.552h0.354c1.13,0,1.159,0.147,1.159,0.658v7.55c0,0.495-0.03,0.656-1.159,0.656h-0.354v0.525h9.18"/>
			<path clip-path="url(#SVGID_10_)" d="M173.993,139.508c0-0.396-0.029-0.412-0.439-0.412c-0.936,0.918-2.264,0.934-2.863,0.934
				v0.524c0.354,0,1.326,0,2.136-0.386v7.467c0,0.484,0,0.674-1.474,0.674h-0.56v0.525c0.264-0.016,2.064-0.059,2.606-0.059
				c0.453,0,2.298,0.043,2.62,0.059v-0.525h-0.559c-1.468,0-1.468-0.19-1.468-0.674"/>
		</g>
	</g>
</g>
<g>
	<g>

			<line fill="none" stroke="#000000" stroke-linecap="round" stroke-linejoin="round" x1="26.739" y1="92.798" x2="29.739" y2="92.798"/>

			<line fill="none" stroke="#000000" stroke-linecap="round" stroke-linejoin="round" stroke-dasharray="6.0723,6.0723" x1="35.812" y1="92.798" x2="154.221" y2="92.798"/>

			<line fill="none" stroke="#000000" stroke-linecap="round" stroke-linejoin="round" x1="157.257" y1="92.798" x2="160.257" y2="92.798"/>
	</g>
</g>
<g>
	<g>
		<defs>
			<rect id="SVGID_11_" x="162.271" y="78.625" width="32.348" height="23.42"/>
		</defs>
		<clipPath id="SVGID_12_">
			<use xlink:href="#SVGID_11_"  overflow="visible"/>
		</clipPath>
		<g clip-path="url(#SVGID_12_)">
			<defs>
				<rect id="SVGID_13_" x="162.271" y="78.625" width="32.348" height="23.525"/>
			</defs>
			<clipPath id="SVGID_14_">
				<use xlink:href="#SVGID_13_"  overflow="visible"/>
			</clipPath>
			<path clip-path="url(#SVGID_14_)" d="M165.918,91.463c0.041-0.232,0.943-4.916,2.138-7.385c0.566-1.139,1.006-1.983,1.678-1.983
				c0.714,0,0.714,0.761,0.714,1.098C170.447,86.716,166.924,90.408,165.918,91.463 M162.905,94.4
				c-0.043,0.062-0.107,0.126-0.107,0.211c0,0.105,0.127,0.274,0.253,0.274c0.105,0,0.169-0.063,0.761-0.653
				c0.168-0.148,0.591-0.549,0.76-0.717c0.212,1.664,0.824,3.224,2.367,3.224c0.845,0,1.585-0.481,2.028-0.795
				c0.296-0.209,1.289-1.025,1.289-1.234c0-0.062-0.063-0.251-0.254-0.251c-0.063,0-0.084,0.021-0.274,0.187
				c-1.353,1.312-2.135,1.623-2.747,1.623c-0.951,0-1.289-1.096-1.289-2.739c0-0.126,0.043-1.096,0.105-1.201
				c0.043-0.062,0.043-0.105,0.466-0.525c1.711-1.707,4.713-5.268,4.713-8.533c0-0.358,0-1.646-1.241-1.646
				c-1.744,0-3.3,3.48-3.51,3.965c-1.009,2.298-1.66,4.765-1.66,7.272L162.905,94.4z"/>
			<path clip-path="url(#SVGID_14_)" d="M175.242,78.965c-0.162-0.206-0.179-0.222-0.474-0.222h-2.555v0.529h0.444
				c0.637,0,1.007,0.074,1.081,0.089v7.85c0,0.397,0,1.061-1.525,1.061v0.529c0.604-0.045,1.196-0.059,1.801-0.059
				c0.605,0,1.196,0.014,1.802,0.059v-0.529c-1.489,0-1.489-0.666-1.489-1.063V79.75l6.555,8.829
				c0.147,0.208,0.162,0.222,0.339,0.222c0.281,0,0.281-0.133,0.281-0.412v-8.055c0-0.398,0-1.061,1.49-1.061v-0.529
				c-0.605,0.044-1.195,0.059-1.801,0.059s-1.196-0.015-1.802-0.059v0.529c1.524,0,1.524,0.662,1.524,1.061v6.237"/>
			<path clip-path="url(#SVGID_14_)" d="M194.546,84.917h-0.502c-0.384,2.231-0.722,3.353-3.447,3.353h-2.328
				c-0.691,0-0.707-0.117-0.707-0.574V83.86h1.479c1.478,0,1.698,0.441,1.698,1.722h0.528v-3.988h-0.528
				c0,1.291-0.221,1.736-1.698,1.736h-1.479v-3.426c0-0.455,0.016-0.572,0.707-0.572h2.21c2.417,0,2.843,0.789,3.108,2.839h0.502
				l-0.443-3.396h-9.022v0.556h0.356c1.14,0,1.17,0.148,1.17,0.664v7.614c0,0.501-0.03,0.663-1.17,0.663h-0.356v0.529h9.259"/>
			<path clip-path="url(#SVGID_14_)" d="M178.857,99.052h-0.505c-0.044,0.329-0.192,1.213-0.385,1.362
				c-0.118,0.091-1.258,0.091-1.466,0.091h-2.723c1.555-1.38,2.071-1.795,2.96-2.492c1.096-0.875,2.118-1.793,2.118-3.202
				c0-1.793-1.566-2.893-3.457-2.893c-1.832,0-3.072,1.285-3.072,2.643c0,0.754,0.644,0.827,0.795,0.827
				c0.358,0,0.794-0.254,0.794-0.793c0-0.271-0.107-0.796-0.905-0.796c0.461-1.031,1.473-1.352,2.172-1.352
				c1.486,0,2.262,1.155,2.262,2.354c0,1.288-0.92,2.308-1.395,2.842l-3.574,3.521c-0.147,0.133-0.147,0.163-0.147,0.576h6.084"/>
		</g>
	</g>
</g>
<circle fill="none" stroke="#683939" stroke-miterlimit="10" cx="70.836" cy="92.798" r="4.96"/>
<circle fill="none" stroke="#683939" stroke-miterlimit="10" cx="138.351" cy="92.798" r="4.96"/>
<circle fill="none" stroke="#683939" stroke-miterlimit="10" cx="62.586" cy="139.89" r="4.96"/>
</svg>
